<svg id="Layer_1" data-name="Layer 1" xmlns="http://www.w3.org/2000/svg" viewBox="0 0 2156.92 2087.73"><defs><style>.cls-1{fill:#fff;}.cls-2{fill:#ffba00;}.cls-3{fill:#80bc00;}</style></defs><path class="cls-1" d="M1244.6,932c30.49,24.31,60.4,47.79,89.93,71.74,181.87,147.47,355.33,304.07,515.46,475.1,76.45,81.65,149.3,166.34,215.09,256.91,34.24,47.15,66.32,95.7,93.56,147.29,18.66,35.36,35.14,71.67,44.5,110.74,5.38,22.46,8.8,45.14,4.47,68.34-3.19,17.08-9.86,32.25-22.49,44.45-1.58,1.52-3.54,2.64-6.81,5-.38-3.71-.91-5.84-.76-7.92,1.9-27.06-6.25-51.87-16.83-76.17a71.77,71.77,0,0,1-4.78-13.13c-7.15-32.82-20-63.49-34.86-93.39-26.88-54-59.87-104.15-95.13-152.89-66.45-91.84-140.36-177.48-217.87-260.07-130.31-138.87-269.82-268-415.48-390.55-39.52-33.25-79.78-65.62-119.74-98.35-3.84-3.14-8-5.93-13.86-10.29,1.9,19.78,3.66,36.92,5.17,54.07,3.36,38.39,5.17,76.84,3.85,115.37-1.78,52.13-6.29,104-15.65,155.37-13.35,73.33-34.38,144.14-67.77,211-1.24,2.48-2.28,5.07-3.56,8,5.17,7.28,12.77,11.29,19.4,16.25a685.85,685.85,0,0,0,79.13,51c54.33,30.08,111.85,50.76,174.14,55.91,21,1.74,42,.72,63.13-1.44,18.8-1.92,36.49-7.66,56.93-12.34-8.8,9.7-18.84,13.36-28.08,17.66-45.82,21.32-94.27,26.89-144.2,22.75-59.7-5-115.66-23.58-170-47.35-27.92-12.2-55-26.27-82.51-39.46a51.37,51.37,0,0,0-5.18-1.73c-2.68,3.24-5.67,6.66-8.44,10.24-21.11,27.29-44.91,51.82-73.73,71.07-34,22.71-71,35.81-112.45,34.82-32.75-.78-62.77-10.46-90.82-26.77-35.07-20.39-63.21-48.45-87.6-80.49-34.44-45.25-59.34-95.62-78.72-148.8-23.39-64.22-38-130.52-45.9-198.38-7.5-64.07-9.52-128.27-5-192.62,7.42-105.69,28.46-208.16,73.09-304.93,19.76-42.84,44-82.88,75.5-118.29,19.13-21.54,40.54-40.42,65.22-55.45,27.34-16.65,56.86-26.83,88.87-28.75,30.59-1.84,59.7,4.66,87.41,17.61,32.88,15.36,60.27,37.92,84.41,64.67,35.29,39.11,61.37,84,82.59,131.94,18.1,40.87,31.8,83.24,42.49,126.61C1241.92,921.4,1243.19,926.39,1244.6,932Zm-105.09,588.46c3.25-6.17,5.77-10,7.44-14.27,9.85-24.84,20.73-49.36,29-74.73,25-76.76,37.28-155.81,40.64-236.43,3.67-87.76-3.52-174.44-23.5-260-14.59-62.44-35.89-122.41-68.16-178.11-16.55-28.55-35.8-55.1-59.49-78.24-15.54-15.19-32.58-28.34-52.14-38q-59.55-29.34-119.23-.17c-19.58,9.59-36.65,22.72-52.21,37.88-19.27,18.78-35.57,39.93-50,62.57-24.87,39-43.6,80.91-58.19,124.69-26.58,79.81-39.8,162-43.25,245.91-3.59,87.28,3.69,173.48,23.47,258.57,12.79,55,31.06,108.17,57.2,158.43,2.31,4.45,4.89,8.75,8.55,15.27,4.48-12,7.78-21.55,11.6-30.9,8-19.62,17.54-38.41,31.43-54.64,18.05-21.09,40.24-35.16,68.23-38.23,29.92-3.28,58.89,1.56,87.13,11.67,41.26,14.78,79.8,35.12,117.54,57.1C1110.51,1497.61,1126.09,1505.45,1139.51,1520.49ZM796.11,1571c23.91,35.66,50.73,66.74,87.14,88.14,46.56,27.36,93.49,27.4,140.2.22,28.86-16.8,51.8-40.13,71.82-66.53.78-1,1-2.46,1.83-4.43-2.79-1.8-5.4-3.62-8.13-5.23-21.44-12.55-42.85-25.14-64.35-37.58-18.71-10.81-38.12-20.24-58.62-27.13-27.8-9.36-56-15-85.61-9.36C842.74,1516.23,816.32,1538.12,796.11,1571Z" transform="translate(-69.55 -121.7)"/><path class="cls-1" d="M1520.43,1147.79a46.22,46.22,0,0,1-5.33-3.46c-10.44-9.4-20.81-18.87-31.81-28.87,2.73-5.59,7.54-8.65,11.51-12.29,92.83-85,183-172.83,269.21-264.56,93-99,181.89-201.43,261.2-311.88,37.54-52.29,72.75-106.07,102.49-163.26,17.35-33.37,32.88-67.55,42-104.21,4.31-17.31,7.4-34.79,5.22-52.91-2-16.62-10.85-26.35-26.83-30.28a143.56,143.56,0,0,0-44.7-3.43c-40.12,2.83-78.62,13-116.58,25.51-63.89,21-125,48.63-185,78.94-125.5,63.45-244.48,137.76-360.46,217-24,16.42-47.74,33.31-71.61,50-3.8,2.65-7.67,5.19-11.47,7.77l-28.18-40.45a65.08,65.08,0,0,1,5.5-4.81c136.47-97.57,277-188.67,426.15-265.91,67.16-34.78,135.8-66.25,207.7-90.13,33.44-11.11,67.35-20.41,102.31-25.38,23.76-3.39,47.5-4.85,71.55-1.79,53.13,6.77,83.36,40.31,83.13,94-.09,20.75-3.95,41-9.48,61-11.09,40-28.11,77.59-47.41,114.18-36.46,69.12-80.21,133.57-126.89,196.07C1956,704.73,1860,812.8,1759.43,916.92q-110.11,114-227.35,220.78C1528.34,1141.12,1524.42,1144.35,1520.43,1147.79Z" transform="translate(-69.55 -121.7)"/><path class="cls-1" d="M806.7,626.32c-12.5,12.58-24,24.14-36.08,36.29-4.08-2.4-8.53-4.94-12.9-7.6-95.11-57.81-192.17-112-293.55-158.2-59-26.86-119-51.08-181.78-67.76-35-9.3-70.35-17.06-106.86-15.41a154.93,154.93,0,0,0-33.1,5.64c-12.46,3.36-19.17,12.37-21.09,25.41-2,13.29-.32,26.23,2.22,39.14,4.56,23.14,12.8,45.1,22.29,66.59,20.74,47,47.09,90.78,75.64,133.31C273.91,761.84,333,834.75,395,905.42,465.55,986,540.07,1062.81,617,1137.28c4,3.88,7.91,7.86,9.77,9.7.88,24.55,1.65,46.29,2.5,70.08-3.29-2.28-5.22-3.28-6.73-4.72-139.17-132-271.92-269.9-388-423.07C190,730.46,148.63,669.54,115,603.66c-16.25-31.82-30.53-64.48-38.88-99.39-5.37-22.46-8.85-45.07-4.83-68.3,5-29.07,20.42-49.91,47.48-61.93,15.2-6.76,31.27-9.88,47.78-10.85C204.91,361,242.34,367,279.43,376,349,393,415.31,419.11,480.36,448.54c110.93,50.2,216.87,109.68,320.39,173.59C802.72,623.35,804.55,624.8,806.7,626.32Z" transform="translate(-69.55 -121.7)"/><path class="cls-1" d="M566.94,1169c11.52,10.64,20.49,18.85,29.35,27.18,2.7,2.53,5.07,5.42,8.22,8.83-3.28,3.7-6.24,7.22-9.39,10.55-81.45,85.92-159.77,174.54-231.92,268.49-42.92,55.89-83.56,113.36-119.38,174.11-24.11,40.89-46.2,82.81-61.38,128-7,20.94-12.77,42.23-12.73,64.62,0,28.61,8.4,39,36.54,44,16.76,3,33.69,2.19,50.51.1,50.19-6.24,97.95-21.57,144.91-39.55,83-31.79,162.12-71.89,239.24-115.84,43.62-24.86,86.32-51.32,129.43-77.08,4.4-2.62,8.76-5.32,13.66-8.3l37.39,34.59c-1.69,1.6-2.81,3-4.26,4-109,69.32-220.72,133.83-339.13,186-54.16,23.87-109.44,44.72-167.28,58-31.23,7.19-62.75,12-94.88,9.84a168.56,168.56,0,0,1-33.21-5.46c-39.21-10.84-61.11-39.07-63.29-79.89-1.56-29.07,4.29-57,13-84.4,12.08-38.18,29.05-74.23,48.09-109.36,39.69-73.25,87.08-141.44,137.52-207.57,75.26-98.68,157.16-191.65,242.59-281.58C562.76,1176,564.28,1172.9,566.94,1169Z" transform="translate(-69.55 -121.7)"/><path class="cls-2" d="M2036.79,2209.41c-67.88-1.26-120.32-56-118.78-124.11,1.47-65.12,56.6-117.68,122.17-116.48,67.89,1.25,120.32,56,118.78,124.1C2157.5,2158,2102.33,2210.62,2036.79,2209.41Z" transform="translate(-69.55 -121.7)"/><path class="cls-1" d="M1131.57,1638.63l7.37-8.33c5.81,2.22,10.56,3.93,15.23,5.84,44.23,18.18,88.5,36.26,132.61,54.74,7.26,3,14.07,7.45,20.59,12,105.9,73.19,214.31,142.36,326.67,205.25,86.1,48.19,174.09,92.47,266.11,128.38a77.39,77.39,0,0,1,6.94,3.45c-4.09,16.07-8,31.37-12.22,48.1-4.73-1.64-9.51-3.13-14.16-4.93-65.31-25.26-128.55-55-190.67-87.26-123.11-63.87-241.27-136.07-355.92-213.93-63.3-43-125.21-88-187.73-132.19C1141.85,1646.5,1137.48,1643.05,1131.57,1638.63Z" transform="translate(-69.55 -121.7)"/><path class="cls-2" d="M1231.81,710.17A104.19,104.19,0,1,1,1336.1,606.79C1335.83,664,1289.26,710.2,1231.81,710.17Z" transform="translate(-69.55 -121.7)"/><path class="cls-1" d="M1467.36,1196c-70.13,62.28-140.78,122.14-215.31,182.06l12.12-74.13,164.76-140.57Z" transform="translate(-69.55 -121.7)"/><path class="cls-1" d="M627.37,1137l-13.55-13.51,14-10.8C630.44,1120.68,630.44,1120.68,627.37,1137Z" transform="translate(-69.55 -121.7)"/><path class="cls-3" d="M785.48,1141c-2.13,9.32-4.48,16.94-5.53,24.74-1.72,12.87,3.93,23.15,15.71,28.6a56.09,56.09,0,0,0,17.45,5c19.16,2,38.4,2.56,57.49-1.09a30.62,30.62,0,0,0,8-2.36c6.89-3.5,11-9.17,9.7-17.06-1-6.43-2.36-13.06-5.07-18.91-6.68-14.46-13.63-28.85-21.53-42.66-22.48-39.25-41.53-80-51.59-124.22-7.18-31.58-11.52-63.6-11.08-96.19.33-23.93,1.52-47.67,7.18-72,3.47.83,6.65,1.15,9.47,2.32,43.76,18.13,82.81,43.5,118.16,75.05C959,924.58,980.27,950,999,977.62c10.51,15.49,19.07,32.29,28.87,48.27,9.53,15.55,19.29,31,29.43,46.13,4.23,6.33,10.28,11,18.35,12.27,7.69-.1,13.11-4.81,17.51-10.3,12.37-15.41,23.26-31.9,30.66-50.29,10.19-25.31,1.11-41.73-25.78-47.57-6.41-1.39-12.94-2.17-18.42-3.07,19.3-4,39.88-4.26,60.47-3.34,7.91.36,16,1.14,23.61,3.26,25.25,7.06,35.36,20.88,26.72,48.61a69.18,69.18,0,0,1-7,15.28c-8.34,13.6-17.48,26.49-28.8,38-30.71,31.26-63.76,59.7-100.41,83.63-19.58,12.79-40.52,23.52-61,35-47.43,26.57-98.3,43.81-151,56.66-19,4.63-37.93,6.61-57.13,5.06-9.14-.74-18.38-3.55-27-6.94-10-3.93-15.44-12.13-15-23.23.23-6,.56-12.22,2.1-18C750.6,1187,768.83,1157.35,785.48,1141Zm145-141.79c-28.81.35-47.75,22-47.92,46.92-.2,30,23.27,49.36,48.62,49.92,27.06.59,47.13-20.23,47.9-48.45C979.74,1022.07,957,999.43,930.45,999.17Z" transform="translate(-69.55 -121.7)"/><path class="cls-1" d="M1164.55,871.27q10.56,36.45,21,72.83a15,15,0,0,1,.05,4c-1.36,0-2.52.37-3.08-.05-112.84-85.6-227.82-168.19-348.32-245.19,10.89-15,24.48-25.15,38.89-35.05C972.51,731.88,1068.78,799.51,1164.55,871.27Z" transform="translate(-69.55 -121.7)"/><path class="cls-3" d="M1004.31,1252.19c-9.64-6.77-19.44-7.28-30.33-8.9l-40.35,70c-9-7.25-12.36-17.2-18.4-25.11-6.25-8.18-12.11-16.67-18.72-25.82,10.32-7.67,23-9.82,34-15.36,11.72-5.89,23.84-11,35.59-16.8,11.32-5.63,22.45-11.67,33.55-17.73s22.17-12.23,33.08-18.64,21.69-13,32.32-19.88c11-7.11,21.84-14.57,32.71-21.93,10.45-7.07,20.87-14.2,31.17-21.22,7.46,7.89,19.8,34.66,25.54,54.82-3.24,4.7-8.26,3.21-12.7,3.13-17.83-.33-35.64-.88-53.46-1.3-4.17-.09-8.34,0-13.37,0l-9.13,27.54c12,10.9,28.42,12.89,40.25,22-1.69,32.29-3.36,64-5.08,96.78-1.7-1.88-3.64-3.39-4.76-5.37-9.46-16.74-18.93-33.48-28-50.4a46.94,46.94,0,0,1-4.27-13.12c-2.31-11.88-5.76-14.57-19.74-14.14-5.82,4.84-5.43,11.09-3.49,18.35,9.58,4.83,13.71,14.49,18.71,23.45,9.15,16.35,18.23,32.74,28.82,51.78-16.66-8.56-29.63-17.94-43.57-25.54-14.35-7.82-29.15-14.8-44.82-22.68C1001.34,1281.47,1002.78,1267.21,1004.31,1252.19Z" transform="translate(-69.55 -121.7)"/><path class="cls-1" d="M920.69,1411.88c-23-2.31-44.36-1.94-65.39,7.87q-75.57-63.48-148.53-129.51c-3.17-23.86-6.77-47.25-7-70.66a12.24,12.24,0,0,1,2.56-.76,2.2,2.2,0,0,1,1.25.54c70.62,64,142.14,127,215.41,187.92C919.56,1407.76,919.61,1408.88,920.69,1411.88Z" transform="translate(-69.55 -121.7)"/><path class="cls-1" d="M793.65,949.14c3.6,21.49,6.67,39.88,10,59.53L695.45,1112.59c.92-14.74,1.48-26.61,2.44-38.44,1-12.1,2.31-24.16,3.66-37.91C730.65,1008,761.15,979.15,793.65,949.14Z" transform="translate(-69.55 -121.7)"/><path class="cls-1" d="M1179.71,1371.54c-1.73,10-2,17-4.23,23.35-6.7,18.93-14,37.64-21.48,56.3a22.52,22.52,0,0,1-6.55,8.88c-10.57,8.49-21.49,16.53-33.36,25.56l-44.69-29.05Z" transform="translate(-69.55 -121.7)"/><path class="cls-1" d="M935.29,888.12l-38.72-29.34c6.77-9.13,54.29-50.83,68.07-59.61l39.52,28C998.05,835.83,950.13,878.13,935.29,888.12Z" transform="translate(-69.55 -121.7)"/><path class="cls-1" d="M1015.28,754.62l54.26-44.72c9.87,6.57,25.27,27.51,30,40.76l-42.35,35Z" transform="translate(-69.55 -121.7)"/><path class="cls-1" d="M842.13,1616.89l125-85.66,46.94,28.58-130.84,90.42C865.38,1644.05,853.45,1632.26,842.13,1616.89Z" transform="translate(-69.55 -121.7)"/><path class="cls-3" d="M931.79,1075.22c-16.13.14-28-11.16-28.11-26.64-.06-15.83,11.35-27.76,26.92-28.13s27.7,11.16,28,26.9S947.53,1075.08,931.79,1075.22Z" transform="translate(-69.55 -121.7)"/></svg>