<svg id="Layer_1" data-name="Layer 1" xmlns="http://www.w3.org/2000/svg" viewBox="0 0 577.32 121.57"><defs><style>.cls-1{fill:#2d2a26;}.cls-2{fill:#ffba00;}.cls-3{fill:#80bc00;}</style></defs><g id="Objects"><path class="cls-1" d="M39.15,60.05a37.22,37.22,0,0,0,.19,4.36H37.92q-2-7.92-5.15-11.45T26,49.4h-.08V84.07a9.66,9.66,0,0,0,.52,3.7,2.73,2.73,0,0,0,1.88,1.54,16.19,16.19,0,0,0,4.33.4v1.21q-8.55-.18-13.27-.18-4.3,0-12.49.18V89.71a16.19,16.19,0,0,0,4.33-.4,2.73,2.73,0,0,0,1.88-1.54,9.66,9.66,0,0,0,.52-3.7V49.4h-.06c-2.47,0-4.75,1.17-6.82,3.49S3,59.06,1.64,64.4H.24A39.53,39.53,0,0,0,.43,60q0-5.28-.43-12,5.76.18,19.82.18T39.58,48Q39.16,54.78,39.15,60.05Z" transform="translate(0 -5.52)"/><path class="cls-1" d="M86.7,49.74a2.07,2.07,0,0,0-1.18,1.4,13.37,13.37,0,0,0-.3,3.33V84.53a11.71,11.71,0,0,0,.33,3.34,2.11,2.11,0,0,0,1.18,1.39,8.85,8.85,0,0,0,2.79.49V91c-2.18-.12-5.58-.18-10.18-.18s-8.23.06-10.73.18V89.75a9.33,9.33,0,0,0,2.82-.49,2,2,0,0,0,1.18-1.39,13.32,13.32,0,0,0,.3-3.34V70H59.28V84.53a11.71,11.71,0,0,0,.33,3.34,2.06,2.06,0,0,0,1.18,1.39,8.85,8.85,0,0,0,2.79.49V91c-2.34-.12-5.72-.18-10.12-.18-4.89,0-8.48.06-10.79.18V89.75a9.33,9.33,0,0,0,2.82-.49,2,2,0,0,0,1.18-1.39,13.32,13.32,0,0,0,.3-3.34V54.47a12,12,0,0,0-.33-3.33,2.2,2.2,0,0,0-1.18-1.4,9.45,9.45,0,0,0-2.79-.48V48.05q3.45.18,10.79.18,6.54,0,10.12-.18v1.21a10,10,0,0,0-2.82.48,2,2,0,0,0-1.18,1.4,13.37,13.37,0,0,0-.3,3.33V68.78H72.92V54.47a12,12,0,0,0-.33-3.33,2.2,2.2,0,0,0-1.18-1.4,9.45,9.45,0,0,0-2.79-.48V48.05q3.75.18,10.73.18c4.6,0,8-.06,10.18-.18v1.21A9.71,9.71,0,0,0,86.7,49.74Z" transform="translate(0 -5.52)"/><path class="cls-1" d="M128,91q-4.12-.18-13.88-.18-14.19,0-21.22.18V89.75a9,9,0,0,0,2.82-.49,2,2,0,0,0,1.18-1.39,12.46,12.46,0,0,0,.31-3.34V54.47a11.68,11.68,0,0,0-.34-3.33,2.15,2.15,0,0,0-1.18-1.4,9.45,9.45,0,0,0-2.79-.48V48.05q7,.18,21.22.18,8.91,0,12.66-.18c-.28,3.8-.42,7.2-.42,10.18a39.53,39.53,0,0,0,.18,4.36h-1.39q-1.09-7-4.06-10.09A9.58,9.58,0,0,0,114,49.44h-.79a8.08,8.08,0,0,0-2.4.27,1.7,1.7,0,0,0-1,1,8.3,8.3,0,0,0-.27,2.52V68.75h.61a7,7,0,0,0,5.39-2.49,11.55,11.55,0,0,0,2.85-5.51h1.39c-.12,1.69-.18,3.59-.18,5.69v3q0,3.09.36,8.61h-1.39a10.07,10.07,0,0,0-2.82-5.73,7.67,7.67,0,0,0-5.6-2.27h-.61V85.77a8.13,8.13,0,0,0,.27,2.51,1.6,1.6,0,0,0,1,1,7.48,7.48,0,0,0,2.4.27h2q3.51,0,6.66-3.42t4.49-10.94h1.39c-.12,1.46-.18,3.31-.18,5.58A98.86,98.86,0,0,0,128,91Z" transform="translate(0 -5.52)"/><path class="cls-1" d="M309.49,85.08a23.56,23.56,0,0,1-1.42,6.85,9.78,9.78,0,0,1-3,4.3,9.39,9.39,0,0,1-3.37,1.58,15.74,15.74,0,0,1-4.21.54,22.66,22.66,0,0,1-7.21-1.15,92.46,92.46,0,0,1-8.91-3.57l-4-1.7a6.8,6.8,0,0,0-1.46-.43,12.88,12.88,0,0,1-2.57,1.09,8,8,0,0,1-2.52.43,3.88,3.88,0,0,1-2.06-.46A1.46,1.46,0,0,1,268,91.2a1.53,1.53,0,0,1,.85-1.39,5.08,5.08,0,0,1,2.49-.49,11.88,11.88,0,0,1,4.61,1.08,27.42,27.42,0,0,0,4.55-1.63c.36-.12.78-.29,1.24-.49s1-.4,1.61-.6a24.43,24.43,0,0,1-10.47-3.28A18.43,18.43,0,0,1,266,77a23.92,23.92,0,0,1-2.42-11,23.59,23.59,0,0,1,2.91-11.82,20.36,20.36,0,0,1,8.12-8,24.44,24.44,0,0,1,11.88-2.85,26.61,26.61,0,0,1,12,2.6,18.92,18.92,0,0,1,8,7.55,23.22,23.22,0,0,1,2.85,11.79,23.93,23.93,0,0,1-2.79,11.64,20.13,20.13,0,0,1-7.82,8,24.06,24.06,0,0,1-11.51,3.06,15.5,15.5,0,0,0-2.7.6c-.87.29-1.69.59-2.46.91a35.77,35.77,0,0,1-4,1.4l2.37.06q5.21.18,8.85.18a50.16,50.16,0,0,0,10.3-.85,17.38,17.38,0,0,0,5.33-1.88,10.86,10.86,0,0,0,3.46-3.45Zm-31.82-8.36a18.53,18.53,0,0,0,3.76,7.39,6.9,6.9,0,0,0,5.21,2.61,6.7,6.7,0,0,0,5.24-2.7,18.58,18.58,0,0,0,3.49-7.55,45.76,45.76,0,0,0,1.21-11.07,40,40,0,0,0-1.39-11.09,18.73,18.73,0,0,0-3.76-7.39,7,7,0,0,0-5.21-2.61A6.78,6.78,0,0,0,281,47a18.71,18.71,0,0,0-3.48,7.54,46,46,0,0,0-1.21,11.09A39.76,39.76,0,0,0,277.67,76.72Z" transform="translate(0 -5.52)"/><path class="cls-1" d="M352.46,45.26a5.94,5.94,0,0,0-2.79,1.3,4.81,4.81,0,0,0-1.21,2.7,35.5,35.5,0,0,0-.3,5.45V69.32q0,8.73-2.49,12.85a10.46,10.46,0,0,1-4.81,4.18,19.8,19.8,0,0,1-8.22,1.46q-7.33,0-11.39-2.91a10.12,10.12,0,0,1-4-5.7,37.2,37.2,0,0,1-1-9.7v-19a13.37,13.37,0,0,0-.3-3.33,2.11,2.11,0,0,0-1.19-1.4,9.58,9.58,0,0,0-2.81-.48V44.08q3.45.18,10.66.18c4.81,0,8.42-.06,10.85-.18v1.21a12.61,12.61,0,0,0-3.18.48,2.2,2.2,0,0,0-1.36,1.4,10.72,10.72,0,0,0-.37,3.33V75.2q0,5.82,1.82,8.15t5.76,2.34q5.76,0,8.18-4.1T346.73,70V55.93a41.17,41.17,0,0,0-.36-6.46,4.39,4.39,0,0,0-1.6-2.88,9.88,9.88,0,0,0-4.16-1.33V44.05q2.49.18,6.79.18c2.14,0,3.82-.06,5-.18Z" transform="translate(0 -5.52)"/><path class="cls-1" d="M391.58,84.75a2.94,2.94,0,0,0,1.85,1V87q-4.37-.18-11-.18c-4.6,0-8,.06-10.18.18V85.75a9.35,9.35,0,0,0,3.27-.58,1.6,1.6,0,0,0,1-1.61,8.64,8.64,0,0,0-.72-2.91l-3.58-9.93h-12.3l-1,2.68a24,24,0,0,0-2,7.88c0,1.66.46,2.79,1.39,3.4a8.21,8.21,0,0,0,4.12,1v1.21q-4.55-.18-7.94-.18c-1.9,0-3.45.06-4.66.18V85.68a4.7,4.7,0,0,0,2.84-1.88,20,20,0,0,0,2.73-5.22L368.86,44q1.93.12,3.21.12t3.15-.12L389.89,81.8A8.76,8.76,0,0,0,391.58,84.75ZM371.73,69.5l-5.51-15.1L360.4,69.55Z" transform="translate(0 -5.52)"/><path class="cls-1" d="M434.71,45.26a5.94,5.94,0,0,0-2.79,1.3,4.74,4.74,0,0,0-1.21,2.7,36.82,36.82,0,0,0-.31,5.45V87c-.8-.08-1.47-.12-2-.12a17.68,17.68,0,0,0-2.24.12L399.31,57.62V75.08a38.59,38.59,0,0,0,.37,6.45,4.31,4.31,0,0,0,1.6,2.88,9.54,9.54,0,0,0,4.15,1.34V87c-1.65-.12-3.92-.18-6.78-.18-2.15,0-3.82.06-5,.18V85.75a5.64,5.64,0,0,0,2.79-1.31,4.73,4.73,0,0,0,1.22-2.69,35.56,35.56,0,0,0,.3-5.46V50.47a11.68,11.68,0,0,0-.34-3.33,2.15,2.15,0,0,0-1.18-1.4,9.45,9.45,0,0,0-2.79-.48V44.05c1.22.12,2.89.18,5,.18s4-.06,5.57-.18L429,70.23V55.93a41.17,41.17,0,0,0-.36-6.46A4.41,4.41,0,0,0,427,46.59a9.79,9.79,0,0,0-4.15-1.33V44.05q2.49.18,6.79.18c2.14,0,3.82-.06,5-.18Z" transform="translate(0 -5.52)"/><path class="cls-1" d="M476.71,56.05a39.35,39.35,0,0,0,.21,4.35h-1.39q-2-7.92-5.15-11.45c-2.1-2.34-4.37-3.53-6.82-3.55h-.06V80.07a9.65,9.65,0,0,0,.51,3.7,2.75,2.75,0,0,0,1.91,1.63,16.19,16.19,0,0,0,4.33.4V87q-8.53-.18-13.27-.18-4.31,0-12.48.18V85.8a16.19,16.19,0,0,0,4.33-.4,2.75,2.75,0,0,0,1.88-1.54,9.65,9.65,0,0,0,.51-3.7V45.4h-.06c-2.46,0-4.74,1.16-6.82,3.49s-3.78,6.15-5.12,11.48h-1.39A39.53,39.53,0,0,0,438,56q0-5.28-.42-12,5.75.18,19.81.18T477.16,44Q476.71,50.78,476.71,56.05Z" transform="translate(0 -5.52)"/><path class="cls-1" d="M519.8,45.26a5.94,5.94,0,0,0-2.79,1.3,4.81,4.81,0,0,0-1.21,2.7,35.5,35.5,0,0,0-.3,5.45V69.32q0,8.73-2.49,12.85a10.46,10.46,0,0,1-4.81,4.18A19.8,19.8,0,0,1,500,87.81q-7.34,0-11.39-2.91a10.18,10.18,0,0,1-4-5.7,37.2,37.2,0,0,1-1-9.7v-19a13.37,13.37,0,0,0-.3-3.33,2.09,2.09,0,0,0-1.19-1.4,9.58,9.58,0,0,0-2.81-.48V44.08q3.45.18,10.66.18c4.81,0,8.42-.06,10.85-.18v1.21a12.61,12.61,0,0,0-3.18.48,2.2,2.2,0,0,0-1.36,1.4,10.72,10.72,0,0,0-.37,3.33V75.2q0,5.82,1.82,8.15t5.76,2.34q5.76,0,8.18-4.1T514.07,70V55.93a41.17,41.17,0,0,0-.36-6.46,4.39,4.39,0,0,0-1.6-2.88A9.88,9.88,0,0,0,508,45.26V44.05q2.49.18,6.79.18c2.14,0,3.82-.06,5-.18Z" transform="translate(0 -5.52)"/><path class="cls-1" d="M574.5,45.74a2,2,0,0,0-1.18,1.4,13.37,13.37,0,0,0-.3,3.33V80.53a11.71,11.71,0,0,0,.33,3.34,2.11,2.11,0,0,0,1.18,1.39,8.85,8.85,0,0,0,2.79.49V87c-2.47-.12-6-.18-10.73-.18-4.89,0-8.48.06-10.79.18V85.75a11.78,11.78,0,0,0,3.18-.49,2.16,2.16,0,0,0,1.37-1.39,11,11,0,0,0,.36-3.34v-31l-14.6,37.34h-1L528,48V75.05a39.69,39.69,0,0,0,.37,6.45,4.35,4.35,0,0,0,1.6,2.88,9.62,9.62,0,0,0,4.16,1.34v1.21q-2.49-.18-6.79-.18c-2.14,0-3.82.06-5,.18V85.72a5.69,5.69,0,0,0,2.78-1.31,4.73,4.73,0,0,0,1.22-2.69,35.56,35.56,0,0,0,.3-5.46V50.47a11.67,11.67,0,0,0-.33-3.33,2.19,2.19,0,0,0-1.19-1.4,9.38,9.38,0,0,0-2.78-.48V44.05c1.21.12,2.89.18,5,.18q7.27,0,12.54-.18l11.46,25.76,9.94-25.58h5.27c4.69,0,8.26-.06,10.73-.18v1.21A10.14,10.14,0,0,0,574.5,45.74Z" transform="translate(0 -5.52)"/></g><path class="cls-1" d="M205.43,52.71c1.78,1.41,3.52,2.78,5.24,4.17a297.66,297.66,0,0,1,30,27.67,155.78,155.78,0,0,1,12.53,15,71.48,71.48,0,0,1,5.45,8.58,28.1,28.1,0,0,1,2.59,6.44,9.55,9.55,0,0,1,.26,4,4.7,4.7,0,0,1-1.31,2.59,3,3,0,0,1-.4.29,3.15,3.15,0,0,1,0-.46,9.44,9.44,0,0,0-1-4.43,4.45,4.45,0,0,1-.28-.77,23.91,23.91,0,0,0-2-5.44,64.83,64.83,0,0,0-5.54-8.9,154.1,154.1,0,0,0-12.69-15.14,280.92,280.92,0,0,0-24.19-22.74c-2.3-1.94-4.65-3.83-7-5.73l-.81-.6c.11,1.15.21,2.15.3,3.15a55.76,55.76,0,0,1,.23,6.72,62.38,62.38,0,0,1-.92,9,45.37,45.37,0,0,1-3.94,12.29c-.07.14-.14.29-.21.47a4.6,4.6,0,0,0,1.13.94,39.31,39.31,0,0,0,4.61,3A25.09,25.09,0,0,0,217.61,96a19.6,19.6,0,0,0,3.67-.09,26.17,26.17,0,0,0,3.32-.72,4.4,4.4,0,0,1-1.64,1,16.32,16.32,0,0,1-8.39,1.33,31.21,31.21,0,0,1-9.9-2.76c-1.63-.71-3.2-1.53-4.81-2.3l-.3-.1c-.15.19-.33.39-.49.6a18.33,18.33,0,0,1-4.29,4.14,11.11,11.11,0,0,1-6.55,2,10.83,10.83,0,0,1-5.29-1.56,17.53,17.53,0,0,1-5.1-4.68,32.18,32.18,0,0,1-4.58-8.67,50.35,50.35,0,0,1-2.68-11.55,60.87,60.87,0,0,1-.29-11.21,50.2,50.2,0,0,1,4.26-17.76,27.8,27.8,0,0,1,4.39-6.89,17.27,17.27,0,0,1,3.8-3.23A11.09,11.09,0,0,1,187.92,32,10.43,10.43,0,0,1,193,33a15.47,15.47,0,0,1,4.91,3.77,28.28,28.28,0,0,1,4.81,7.68,44.45,44.45,0,0,1,2.48,7.38ZM199.31,87c.19-.36.34-.58.44-.83.57-1.44,1.2-2.87,1.68-4.35A51.05,51.05,0,0,0,203.8,68a55.87,55.87,0,0,0-1.37-15.14,37.64,37.64,0,0,0-4-10.37A20.73,20.73,0,0,0,195,38a12.06,12.06,0,0,0-3-2.22,7.5,7.5,0,0,0-6.94,0,12,12,0,0,0-3,2.21,20,20,0,0,0-2.91,3.64,32.44,32.44,0,0,0-3.39,7.26,51.72,51.72,0,0,0-2.52,14.32,56.09,56.09,0,0,0,1.37,15.06,38.81,38.81,0,0,0,3.33,9.22c.13.26.28.51.5.89.26-.7.45-1.25.67-1.8a11.59,11.59,0,0,1,1.83-3.18,6,6,0,0,1,4-2.22,11.26,11.26,0,0,1,5.07.68,41.13,41.13,0,0,1,6.84,3.32A9.66,9.66,0,0,1,199.31,87Zm-20,3a16,16,0,0,0,5.07,5.13,7.6,7.6,0,0,0,8.16,0,14.6,14.6,0,0,0,4.19-3.87c0-.06,0-.15.1-.26l-.47-.31-3.75-2.18a18.82,18.82,0,0,0-3.41-1.58,9.64,9.64,0,0,0-5-.55A7.15,7.15,0,0,0,179.32,89.92Z" transform="translate(0 -5.52)"/><path class="cls-1" d="M221.49,65.27a3.28,3.28,0,0,1-.31-.2l-1.85-1.68a2.58,2.58,0,0,1,.67-.72c5.41-5,10.66-10.06,15.68-15.4a181.89,181.89,0,0,0,15.21-18.16,79.32,79.32,0,0,0,6-9.51,27.57,27.57,0,0,0,2.45-6.07,8.38,8.38,0,0,0,.3-3.08A1.88,1.88,0,0,0,258,8.69a8.42,8.42,0,0,0-2.6-.2A28.11,28.11,0,0,0,248.65,10a79.24,79.24,0,0,0-10.77,4.6,186,186,0,0,0-21,12.64c-1.4.95-2.78,1.94-4.17,2.91l-.67.45-1.64-2.35a2.79,2.79,0,0,1,.32-.28,204.53,204.53,0,0,1,24.81-15.49,84.25,84.25,0,0,1,12.1-5.25,34.83,34.83,0,0,1,6-1.47,15.25,15.25,0,0,1,4.16-.11,5.08,5.08,0,0,1,4.84,5.48,13.47,13.47,0,0,1-.55,3.55,33.33,33.33,0,0,1-2.76,6.65,86.87,86.87,0,0,1-7.39,11.41,197.3,197.3,0,0,1-16.49,19.12Q229,58.46,222.17,64.68Z" transform="translate(0 -5.52)"/><path class="cls-1" d="M179.93,34.91,177.83,37l-.75-.44A163.43,163.43,0,0,0,160,27.37a66.76,66.76,0,0,0-10.59-3.95,20.81,20.81,0,0,0-6.22-.9,9.07,9.07,0,0,0-1.93.33A1.66,1.66,0,0,0,140,24.33a7,7,0,0,0,.13,2.28,18.83,18.83,0,0,0,1.3,3.88,50.83,50.83,0,0,0,4.41,7.76A127,127,0,0,0,156,51.16c4.11,4.69,8.45,9.16,12.93,13.5l.57.56c0,1.43.09,2.7.14,4.09-.19-.14-.3-.2-.39-.28A205.79,205.79,0,0,1,146.62,44.4a72.35,72.35,0,0,1-7-10.81,26.39,26.39,0,0,1-2.27-5.79,9.89,9.89,0,0,1-.28-4,4.54,4.54,0,0,1,2.76-3.6,7.71,7.71,0,0,1,2.79-.63,22.41,22.41,0,0,1,6.57.74,67.51,67.51,0,0,1,11.7,4.22,167.09,167.09,0,0,1,18.66,10.11C179.7,34.73,179.81,34.82,179.93,34.91Z" transform="translate(0 -5.52)"/><path class="cls-1" d="M166,66.51l1.71,1.58c.16.15.3.32.48.51-.19.22-.36.42-.55.62a198.74,198.74,0,0,0-13.5,15.63,99.9,99.9,0,0,0-7,10.14,39.58,39.58,0,0,0-3.58,7.45,11.8,11.8,0,0,0-.74,3.77c0,1.66.49,2.27,2.13,2.56a9.66,9.66,0,0,0,2.94,0,35.91,35.91,0,0,0,8.44-2.3,101.55,101.55,0,0,0,13.93-6.74c2.54-1.45,5-3,7.54-4.49l.79-.49,2.18,2c-.1.09-.17.17-.25.23a148.4,148.4,0,0,1-19.75,10.83,54,54,0,0,1-9.74,3.38,18.69,18.69,0,0,1-5.52.57,9.14,9.14,0,0,1-1.94-.32,4.74,4.74,0,0,1-3.68-4.65,13.86,13.86,0,0,1,.75-4.91,37.26,37.26,0,0,1,2.81-6.37,94.39,94.39,0,0,1,8-12.09A200.3,200.3,0,0,1,165.6,67.05,4.94,4.94,0,0,0,166,66.51Z" transform="translate(0 -5.52)"/><path class="cls-2" d="M251.56,127.09a7,7,0,1,1,7.11-6.78A7,7,0,0,1,251.56,127.09Z" transform="translate(0 -5.52)"/><path class="cls-1" d="M198.85,93.85l.43-.48.89.34c2.57,1.06,5.15,2.11,7.72,3.19a6.54,6.54,0,0,1,1.2.69c6.16,4.27,12.48,8.29,19,12A125.38,125.38,0,0,0,243.6,117l.41.2c-.24.94-.47,1.83-.71,2.8l-.83-.28a113.33,113.33,0,0,1-11.1-5.08,206.16,206.16,0,0,1-20.73-12.46c-3.68-2.51-7.29-5.13-10.93-7.7Z" transform="translate(0 -5.52)"/><path class="cls-2" d="M204.69,39.79a6.07,6.07,0,1,1,6.07-6.06v0A6.06,6.06,0,0,1,204.69,39.79Z" transform="translate(0 -5.52)"/><path class="cls-1" d="M218.4,68.08c-4.08,3.63-8.19,7.11-12.53,10.6l.7-4.32,9.59-8.18Z" transform="translate(0 -5.52)"/><path class="cls-1" d="M169.49,64.64l-.79-.78.82-.63C169.67,63.69,169.67,63.69,169.49,64.64Z" transform="translate(0 -5.52)"/><path class="cls-3" d="M178.7,64.88a14.21,14.21,0,0,0-.32,1.44,1.48,1.48,0,0,0,.91,1.66,3.23,3.23,0,0,0,1,.29,11.34,11.34,0,0,0,3.34-.06,1.59,1.59,0,0,0,.47-.14.89.89,0,0,0,.56-1,3.72,3.72,0,0,0-.29-1.1c-.39-.84-.79-1.68-1.25-2.49a26.36,26.36,0,0,1-3-7.23,23.42,23.42,0,0,1-.64-5.6,19.33,19.33,0,0,1,.41-4.19,3.86,3.86,0,0,1,.56.13A24.58,24.58,0,0,1,187.34,51a23.32,23.32,0,0,1,3.79,4.39c.61.91,1.11,1.88,1.68,2.81s1.12,1.81,1.71,2.69a1.55,1.55,0,0,0,1.07.71,1.31,1.31,0,0,0,1-.6,11.52,11.52,0,0,0,1.79-2.92c.59-1.48.06-2.43-1.5-2.77-.38-.08-.76-.13-1.08-.18a14.25,14.25,0,0,1,3.53-.2,6.28,6.28,0,0,1,1.37.19c1.47.41,2.06,1.22,1.56,2.83a4,4,0,0,1-.41.89A12.11,12.11,0,0,1,200.19,61a35.77,35.77,0,0,1-5.84,4.87c-1.15.74-2.36,1.37-3.56,2a34.41,34.41,0,0,1-8.79,3.3,10.43,10.43,0,0,1-3.33.3,5.78,5.78,0,0,1-1.57-.41,1.3,1.3,0,0,1-.87-1.35,4.63,4.63,0,0,1,.12-1A10.29,10.29,0,0,1,178.7,64.88Zm8.44-8.26a2.73,2.73,0,0,0-2.79,2.73,2.85,2.85,0,0,0,2.83,2.91A2.74,2.74,0,0,0,190,59.44a2.86,2.86,0,0,0-2.83-2.82Z" transform="translate(0 -5.52)"/><path class="cls-1" d="M200.77,49.17c.41,1.42.82,2.83,1.22,4.24a.91.91,0,0,1,0,.23c-.08,0-.15,0-.18,0-6.57-5-13.27-9.79-20.29-14.28a9,9,0,0,1,2.27-2C189.59,41.05,195.19,45,200.77,49.17Z" transform="translate(0 -5.52)"/><path class="cls-3" d="M191.44,71.35a3.83,3.83,0,0,0-1.77-.52l-2.35,4.08a6.82,6.82,0,0,1-1.07-1.46c-.36-.48-.7-1-1.09-1.51a12.51,12.51,0,0,1,2-.89c.68-.34,1.39-.64,2.07-1s1.31-.68,2-1,1.29-.71,1.92-1.09,1.27-.75,1.89-1.15,1.27-.85,1.9-1.28l1.82-1.24a10.48,10.48,0,0,1,1.48,3.19c-.19.28-.48.19-.74.19l-3.11-.08h-.78l-.53,1.6c.7.64,1.66.76,2.34,1.29-.09,1.88-.19,3.72-.29,5.63a2.61,2.61,0,0,1-.28-.31c-.55-1-1.1-2-1.63-2.94a2.83,2.83,0,0,1-.25-.76c-.13-.69-.33-.85-1.15-.82-.34.28-.31.64-.2,1.07a2.87,2.87,0,0,1,1.09,1.36l1.68,3c-1-.5-1.73-1-2.54-1.49s-1.7-.86-2.61-1.32C191.27,73.06,191.35,72.23,191.44,71.35Z" transform="translate(0 -5.52)"/><path class="cls-1" d="M186.57,80.65a7.07,7.07,0,0,0-3.81.46q-4.39-3.7-8.65-7.54a34.17,34.17,0,0,1-.4-4.12l.15,0a.11.11,0,0,1,.07,0c4.11,3.73,8.27,7.39,12.54,10.94A1.17,1.17,0,0,1,186.57,80.65Z" transform="translate(0 -5.52)"/><path class="cls-1" d="M179.17,53.7c.21,1.26.39,2.33.59,3.47l-6.31,6c.06-.86.09-1.55.15-2.24s.13-1.4.21-2.2C175.5,57.13,177.28,55.45,179.17,53.7Z" transform="translate(0 -5.52)"/><path class="cls-1" d="M201.65,78.3a9.52,9.52,0,0,1-.24,1.36c-.39,1.1-.82,2.19-1.25,3.28a1.43,1.43,0,0,1-.39.52c-.61.49-1.25,1-1.94,1.48l-2.6-1.69Z" transform="translate(0 -5.52)"/><path class="cls-1" d="M187.42,50.15l-2.25-1.71a32.39,32.39,0,0,1,4-3.47l2.3,1.63A34.2,34.2,0,0,1,187.42,50.15Z" transform="translate(0 -5.52)"/><path class="cls-1" d="M192.08,42.38l3.16-2.61A6.29,6.29,0,0,1,197,42.15l-2.46,2Z" transform="translate(0 -5.52)"/><path class="cls-1" d="M182,92.59l7.27-5L192,89.26l-7.62,5.27A4.93,4.93,0,0,1,182,92.59Z" transform="translate(0 -5.52)"/><path class="cls-3" d="M187.22,61.05a1.55,1.55,0,0,1-1.64-1.55,1.6,1.6,0,0,1,3.2-.08A1.55,1.55,0,0,1,187.22,61.05Z" transform="translate(0 -5.52)"/></svg>