<svg id="Layer_1" data-name="Layer 1" xmlns="http://www.w3.org/2000/svg" viewBox="0 0 703.46 690.72" style=""><defs><style>.cls-1{fill:none;stroke:#80bc00;stroke-linejoin:round;stroke-width:20px;}</style></defs><g id="Objects"><path class="cls-1 DuWGArCN_0" d="M684.31,531.4c-21-3-42.3-4.84-63.17-8.84a117.84,117.84,0,0,0,1.69-32.14L737,452.56a7,7,0,0,0,4.52-4.81,6.44,6.44,0,0,0,.23-2,7,7,0,0,0-1.76-4.38l-71.32-79.56C630.41,414.67,584,469.28,530.8,522.46,477,576.24,421.8,623.12,368.31,661.58L438,723.12a6.94,6.94,0,0,0,9.8-.56,7,7,0,0,0,1.41-2.44l37.12-114.7A175.62,175.62,0,0,0,529,606.64c5,23.11,6.81,46.76,10.24,69.86,71,.28,132.67,31.09,196.82,58.86-1.58-2-2.1-2.75-2.76-3.41q-52.71-52.77-105.6-105.41l-6.92-6.87c-1.77-1.75-5.85-2.22-8.59-1.74-8.31,1.44-16.48-1.5-20.44-8.19a18.47,18.47,0,0,1,23.43-26.39c7.44,3.5,12.05,11.61,9.9,20.1-1.33,5.29.53,8,3.85,11.34l5.19,5.18q51.5,51.3,102.85,102.76l4.74,4.74c-.18-3.72-1.52-6.68-2.84-9.64C712.24,658.1,684.55,598.69,684.31,531.4Z" transform="translate(-48.29 -54.64)"></path><path class="cls-1 DuWGArCN_1" d="M692.38,126.26c-35.89-35.89-119.79-15-216.43,46.09a2.33,2.33,0,0,0,2.26,4.07c54.08-26.25,98.58-31.71,120.19-10.1,26.5,26.49,12.3,87.37-31,158.13L536,317a796.86,796.86,0,0,0-63-69.7C242.33,33.06,72.36,65.77,65.23,67.27a7,7,0,0,0-5.41,5.54c-.08.47-2.11,11.64-1.36,31.75,2.27,61.08,28.5,187,178.72,343.65a827.47,827.47,0,0,0,78.36,72.33l9.62,44.23c-68.66,41-127.36,53.91-153.24,28-21.61-21.61-16.15-66.12,10.1-120.2A2.33,2.33,0,0,0,178,470.3C116.89,567,96,650.89,131.86,686.78c40.7,40.7,143.15,8.36,255.9-72.75,41.1-29.57,83.57-65.6,124.92-106.95,40.88-40.89,76.57-82.86,106-123.53C700.47,270.25,733.25,167.13,692.38,126.26ZM271.91,337.31a70.13,70.13,0,1,1,72.69,67.48,70.12,70.12,0,0,1-72.69-67.48Z" transform="translate(-48.29 -54.64)"></path><path class="cls-1 DuWGArCN_2" d="M260,280.07A33.7,33.7 0,1,1 327.4,280.07A33.7,33.7 0,1,1 260,280.07"></path></g><style data-made-with="vivus-instant">.DuWGArCN_0{stroke-dasharray:1956 1958;stroke-dashoffset:1957;animation:DuWGArCN_draw_0 7200ms ease-in-out 0ms infinite,DuWGArCN_fade 7200ms linear 0ms infinite;}.DuWGArCN_1{stroke-dasharray:3582 3584;stroke-dashoffset:3583;animation:DuWGArCN_draw_1 7200ms ease-in-out 0ms infinite,DuWGArCN_fade 7200ms linear 0ms infinite;}.DuWGArCN_2{stroke-dasharray:212 214;stroke-dashoffset:213;animation:DuWGArCN_draw_2 7200ms ease-in-out 0ms infinite,DuWGArCN_fade 7200ms linear 0ms infinite;}@keyframes DuWGArCN_draw{100%{stroke-dashoffset:0;}}@keyframes DuWGArCN_fade{0%{stroke-opacity:1;}94.44444444444444%{stroke-opacity:1;}100%{stroke-opacity:0;}}@keyframes DuWGArCN_draw_0{11.11111111111111%{stroke-dashoffset: 1957}38.88888888888889%{ stroke-dashoffset: 0;}100%{ stroke-dashoffset: 0;}}@keyframes DuWGArCN_draw_1{18.055555555555554%{stroke-dashoffset: 3583}45.83333333333333%{ stroke-dashoffset: 0;}100%{ stroke-dashoffset: 0;}}@keyframes DuWGArCN_draw_2{25%{stroke-dashoffset: 213}52.77777777777778%{ stroke-dashoffset: 0;}100%{ stroke-dashoffset: 0;}}</style></svg>