<svg xmlns="http://www.w3.org/2000/svg" viewBox="0 0 800 800"><defs><style>.cls-1{fill:#80bc00;}</style></defs><title>physoc-logo</title><g id="Objects"><path class="cls-1" d="M389.77,193.31c35.23,2.87,67.72-15.28,94.58-46.68Q517.74,107,517.77,61.11h0a109.29,109.29,0,0,0-.64-12.23q-23.25,1.21-49.42,14T424.52,95.31c-22.36,25.31-35.07,56.18-35.43,85.16,0,.42,0,.84,0,1.26,0,.72,0,1.43,0,2.14Q389.21,188.79,389.77,193.31Z"/><path class="cls-1" d="M663.45,329.25l-.52.77.77.49C663.61,330.09,663.54,329.67,663.45,329.25Z"/><path class="cls-1" d="M641,512.06l.6-1.57q-9.37-13.29-19.6-26.9Q632.12,498.11,641,512.06Z"/><path class="cls-1" d="M408,353.45a15,15,0,0,0-7.45-1.73q-6.85,0-10.65,4.68t-3.79,13.15v14.71q0,8.28,3.79,12.84t10.65,4.54A15.22,15.22,0,0,0,408,400a11.17,11.17,0,0,0,4.68-4.91,17.14,17.14,0,0,0,1.6-7.75V366.52a18.25,18.25,0,0,0-1.6-8A11.33,11.33,0,0,0,408,353.45Z"/><path class="cls-1" d="M347.79,209.43c-.48-.36-1-.71-1.44-1.08l-.24-.08C346.67,208.66,347.23,209,347.79,209.43Z"/><path class="cls-1" d="M466.92,199.38l-1.77.46c-4.3,3.14-8.6,6.32-12.94,9.59Q459.64,204.23,466.92,199.38Z"/><path class="cls-1" d="M375.13,638.36a136.82,136.82,0,0,1,14-2.27,119.21,119.21,0,0,1,12.68-.69q4.49,0,9.14.39v.3a137.46,137.46,0,0,1,14,2.27q-12.4-9.87-24.88-20.3Q387.54,628.49,375.13,638.36Z"/><path class="cls-1" d="M159.57,511.24q4.11,10.05,8.61,19.59a338.29,338.29,0,0,0,30,51.6Q222.76,617.2,239.79,633c28.61-15.94,62.13-38.28,100-68.3-12.55-11.75-25-23.78-37.15-35.94-66.32-66.32-123.76-135.48-166.07-199.5a240.42,240.42,0,0,0-4.85,49.35q0,53.64,19.65,110.83c0,.12.09.23.13.35Q155,500,159,509.74c6.1-8.62,12.43-17.33,19.08-26.15Q168.18,497.69,159.57,511.24Z"/><path class="cls-1" d="M178.05,483.59c-6.65,8.82-13,17.53-19.08,26.15l.6,1.5Q168.2,497.69,178.05,483.59Z"/><path class="cls-1" d="M545.06,384.79l.13-.17c-2.39,3-4.86,6-7.31,9C540.09,391.08,542.47,388.15,545.06,384.79Z"/><path class="cls-1" d="M668.22,371.86a238.16,238.16,0,0,0-4.52-41.35l-.77-.49q-4.41,6.66-9,13.39a59,59,0,0,1,.46,7.21,57.9,57.9,0,0,1-48.28,57.09q-12.81,16-26.57,32.19c-25.29,29.72-52.83,59.56-82.13,88.86-12.16,12.16-24.6,24.19-37.15,35.94C498.91,595.37,533,618,562.07,634q16-14.55,40.77-49.77A328.92,328.92,0,0,0,632.6,532.1c1-2.29,2.09-4.6,3.1-6.94q2.7-6.42,5.25-13.1-8.85-13.93-19-28.47,10.26,13.61,19.6,26.9c1.69-4.47,3.34-9,4.94-13.66l-.41-.18q1.24-3.4,2.44-6.86c0-.12.09-.23.13-.35q19.64-57.21,19.66-110.83Q668.31,375.2,668.22,371.86Z"/><path class="cls-1" d="M539.87,362.85a57.88,57.88,0,0,1,48.65-69.58c2.71-4.39,5.3-8.73,7.81-13,2-3.47,4-6.92,5.89-10.33,6.1-11,11.16-21.13,15.35-30.42Q579.88,199.21,514.34,194c-1.66-.14-3.36-.22-5.08-.27q-18.64-.58-42.34,5.69-7.29,4.86-14.71,10.05c4.34-3.27,8.64-6.45,12.94-9.59q-8,2.19-16.56,5.13c-1.27.44-2.54.88-3.83,1.35-29,10.65-46.14,16-51.2,16a28.71,28.71,0,0,1-4.47-.45c-7.94-1.31-21.52-5.59-40.68-12.75l-1-.38-1-.38c.48.37,1,.72,1.44,1.08-.56-.4-1.12-.77-1.68-1.16-21.21-7.83-38.74-12.19-52.62-13-1.47-.08-2.91-.14-4.3-.14a149.72,149.72,0,0,0-75.25,21.24,154.83,154.83,0,0,0-31,24.13c4.09,9,9,18.77,14.87,29.36,34.51,62.29,91.44,134.52,160.31,203.39C371.83,487,385.88,500.47,400,513.35c14.12-12.88,28.17-26.31,41.91-40.05,25.61-25.61,49.51-51.67,71.28-77.52C522.48,384.75,531.42,373.75,539.87,362.85ZM438.75,420.19q0,12.75-4.86,21.84a32.19,32.19,0,0,1-14.17,13.82q-9.32,4.72-22.51,4.72H386.15l-8.69-3.87A31.38,31.38,0,0,1,364,445.77l16.41-15.06a21.24,21.24,0,0,0,7.48,5.21,23.37,23.37,0,0,0,9.1,1.83q7.67,0,12.53-4.19T414.32,422V411.25a23.31,23.31,0,0,1-7.49,8.89,23.6,23.6,0,0,1-14,4.15,27.87,27.87,0,0,1-27.46-18.41q-3.66-9-3.66-21.62v-14.8q0-12.75,3.66-21.85a27.76,27.76,0,0,1,27.46-18.54,22.53,22.53,0,0,1,13.5,4.41,29,29,0,0,1,8,9v-12h24.43ZM446,303.79c0,.23,0,.45,0,.67a2.09,2.09,0,0,0,0,.25c0,.22,0,.44-.07.66s0,.16,0,.24l-.09.55-.06.33c0,.12-.06.23-.08.34s-.08.35-.13.52-.05.14-.07.22-.12.4-.19.6a1.8,1.8,0,0,0-.08.21L445,309l0,0c0,.05,0,.09-.07.13-.1.22-.21.44-.33.65l-.16.27c-.1.16-.21.32-.32.47s-.11.17-.18.26-.3.36-.45.53l-.14.14c-.16.16-.32.3-.48.44l-.19.14c-.14.1-.28.2-.43.29l-.19.1-.46.22-.19.07a4.1,4.1,0,0,1-.5.14l-.16,0a4.62,4.62,0,0,1-.65.05H360.43c-3.3,0-6-4.12-6-9.2s2.69-9.2,6-9.2H421l-24.14-25.82c-2.72-2.91-3.39-8.64-1.5-12.81s5.63-5.19,8.34-2.29l39.73,42.49h0l.08.08a2.09,2.09,0,0,0,.14.17c.1.11.2.23.29.35s.14.2.21.3.15.2.21.3.15.25.23.38.1.19.16.28l.2.42c0,.1.09.2.14.31s.11.27.16.41.1.25.14.37l.12.39c0,.15.09.29.13.44s.06.24.08.36.08.32.11.49l.06.37c0,.16,0,.32.07.49s0,.29.05.44,0,.29,0,.43a5.43,5.43,0,0,1,0,.57c0,.09,0,.19,0,.28Z"/><path class="cls-1" d="M641.55,510.49l-.6,1.57c47.84,75.35,66,136.46,41.88,160.6C649.7,705.79,546.9,659.24,433.2,565.58q25.82-23.51,51.67-49.32a1447.71,1447.71,0,0,0,107.73-120l.48,0q2-2.43,3.89-4.82h.37a41.23,41.23,0,0,0,39.31-53.66c1.08-1.59,2.11-3.12,3-4.52,0-.09-.06-.18-.1-.27,69.9-101.75,99-186.25,67.49-217.77-34-34-129.56,2.54-241.93,84.64l1.77-.46c81.62-54.45,148.77-76.41,174.35-50.83C663,170.29,650.42,222,612.75,287.17h0s-2.81,6.12-13.08,21.92c-.78,0-1.55-.12-2.33-.12a41.23,41.23,0,0,0-38.06,57.08c-1.17,1.57-2.36,3.14-3.58,4.77l.11.24q-5.19,6.75-10.62,13.56l-.13.17c-2.59,3.36-5,6.29-7.18,8.85a1227.72,1227.72,0,0,1-83.46,92.16c-18.12,18.12-36.33,35.28-54.42,51.36-18.09-16.08-36.3-33.24-54.42-51.36C200.85,341.08,117.2,190.08,158.73,148.55c12.34-12.34,34.38-13.59,63-5.49a33.16,33.16,0,0,0,59.87,25.29,647.33,647.33,0,0,1,64.48,39.92l.24.08c-21.52-16.16-42.51-30.71-62.63-43.48a33.16,33.16,0,0,0-57.57-32.82C163.74,100.92,115.15,93,92.92,115.2c-49.38,49.39,50.1,229,222.21,401.06Q340.92,542,366.8,565.58C253.1,659.24,150.3,705.79,117.17,672.66,93,648.43,111.35,587,159.57,511.24l-.6-1.5C83.6,616.34,51.19,705.83,83.82,738.46,125.09,779.73,257.25,717,400,594.9,542.75,717,674.91,779.73,716.18,738.46,748.74,705.9,716.55,616.76,641.55,510.49Z"/></g></svg>