<svg xmlns="http://www.w3.org/2000/svg" viewBox="0 0 800 800"><defs><style>.cls-1{fill:#80bc00;}</style></defs><title>thequantum-rocket</title><g id="Objects"><path class="cls-1" d="M684.31,531.4c-21-3-42.3-4.84-63.17-8.84a117.92,117.92,0,0,0,1.69-32.14L737,452.56a7,7,0,0,0,4.52-4.81,6.43,6.43,0,0,0,.23-2,7,7,0,0,0-1.76-4.38l-71.32-79.56C630.41,414.67,584,469.28,530.8,522.46c-53.78,53.78-109,100.66-162.49,139.12L438,723.12a6.94,6.94,0,0,0,11.21-3l37.12-114.7A175.87,175.87,0,0,0,529,606.64c5,23.11,6.81,46.76,10.24,69.86,71,.28,132.67,31.09,196.82,58.86-1.58-2-2.1-2.75-2.76-3.41Q680.59,679.18,627.7,626.54l-6.92-6.87c-1.77-1.75-5.85-2.22-8.59-1.74-8.31,1.44-16.48-1.5-20.44-8.19a18.47,18.47,0,0,1,23.43-26.39c7.44,3.5,12.05,11.61,9.9,20.1-1.33,5.29.53,8,3.85,11.34l5.19,5.18q51.5,51.3,102.85,102.76l4.74,4.74c-.18-3.72-1.52-6.68-2.84-9.64C712.24,658.1,684.55,598.69,684.31,531.4Z"/><path class="cls-1" d="M692.38,126.26c-41.51-41.51-147.26-7-262.67,77.68,75.22-48.43,140.89-65.42,168.69-37.62,26.5,26.49,12.3,87.37-31,158.13L536,317a797.21,797.21,0,0,0-63-69.7C242.33,33.06,72.36,65.77,65.23,67.27a7,7,0,0,0-5.41,5.54c-.08.47-2.11,11.64-1.36,31.75,2.27,61.08,28.5,187,178.72,343.65a826.13,826.13,0,0,0,78.36,72.33l9.62,44.23c-68.66,41-127.36,53.91-153.24,28-27.8-27.8-10.81-93.47,37.62-168.69C124.83,539.52,90.35,645.27,131.86,686.78c40.7,40.7,143.15,8.36,255.9-72.75,41.1-29.57,83.57-65.6,124.92-106.95,40.88-40.89,76.57-82.86,106-123.53C700.47,270.25,733.25,167.13,692.38,126.26ZM271.91,337.31a70.13,70.13,0,1,1,72.69,67.48A70.13,70.13,0,0,1,271.91,337.31Z"/><circle class="cls-1" cx="341.99" cy="334.71" r="33.7"/></g></svg>